<?xml version="1.0" encoding="UTF-8"?>
<svg id="Calque_1" data-name="Calque 1" xmlns="http://www.w3.org/2000/svg" viewBox="0 0 363.71 257.33">
  <defs>
    <style>
      .cls-1 {
        fill: #00a1d3;
      }
    </style>
  </defs>
  <path class="cls-1" d="M124.12,70.92l-19.55-19.55c-9.7,9.7-17.43,21.14-23.19,34.33-5.76,13.18-8.64,27.51-8.64,42.96s2.88,29.78,8.64,42.96c5.76,13.18,13.49,24.63,23.19,34.33l19.55-19.55c-7.58-7.58-13.49-16.22-17.73-25.91-4.24-9.7-6.36-20.31-6.36-31.82s2.2-22.2,6.59-32.05c4.39-9.85,10.23-18.41,17.5-25.69Z"/>
  <path class="cls-1" d="M239.59,186.4l19.55,19.55c9.7-10,17.43-21.6,23.19-34.78,5.76-13.18,8.64-27.35,8.64-42.51s-2.88-29.78-8.64-42.96c-5.76-13.18-13.49-24.63-23.19-34.33l-19.55,19.55c7.58,7.58,13.49,16.21,17.73,25.91,4.24,9.7,6.37,20.31,6.37,31.82s-2.2,22.2-6.59,32.05c-4.39,9.85-10.23,18.41-17.5,25.69Z"/>
  <path class="cls-1" d="M290.97,19.55c14.25,14.25,25.38,30.61,33.42,49.1,8.03,18.49,12.05,38.49,12.05,60.01s-4.09,41.6-12.28,60.24-19.25,34.93-33.19,48.87l19.55,19.55c16.37-16.67,29.32-35.99,38.87-57.97,9.55-21.97,14.32-45.54,14.32-70.7s-4.77-48.72-14.32-70.7C339.84,35.99,326.89,16.67,310.52,0l-19.55,19.55Z"/>
  <path class="cls-1" d="M53.19,257.33l19.55-19.55c-14.25-14.25-25.38-30.61-33.42-49.1-8.03-18.49-12.05-38.49-12.05-60.01s4.09-41.6,12.28-60.24c8.18-18.64,19.25-34.93,33.19-48.87L53.19,0C36.83,16.37,23.87,35.54,14.32,57.51,4.77,79.49,0,103.2,0,128.66s4.77,49.18,14.32,71.15c9.55,21.97,22.5,41.15,38.87,57.51Z"/>
  <path class="cls-1" d="M207.54,154.35c7.12-7.12,10.68-15.69,10.68-25.69s-3.56-18.56-10.68-25.69c-7.12-7.12-15.69-10.68-25.69-10.68s-18.56,3.56-25.69,10.68c-7.12,7.12-10.68,15.69-10.68,25.69s3.56,18.56,10.68,25.69c7.12,7.12,15.69,10.68,25.69,10.68s18.56-3.56,25.69-10.68Z"/>
</svg>