<?xml version="1.0" encoding="UTF-8"?>
<svg id="Calque_1" data-name="Calque 1" xmlns="http://www.w3.org/2000/svg" viewBox="0 0 361.32 312.94">
  <defs>
    <style>
      .cls-1 {
        fill: #00a1d3;
      }
    </style>
  </defs>
  <path class="cls-1" d="M0,26.15v226.64c0,6.68,2.61,12.71,7.85,18.09s11.33,8.06,18.31,8.06h152.55c-2.32-4.07-4.21-8.28-5.67-12.64s-2.76-8.86-3.92-13.51H26.15V26.15h111.58l26.15,26.15h158.65v69.74c4.94,2.03,9.52,4.21,13.73,6.54,4.21,2.32,8.35,5.08,12.42,8.28V52.3c0-6.68-2.69-12.71-8.06-18.09s-11.4-8.06-18.09-8.06h-147.75L148.62,0H26.15C19.18,0,13.08,2.69,7.85,8.06,2.62,13.44,0,19.47,0,26.15Z"/>
  <path class="cls-1" d="M346.06,172.16l-18.31,8.72c-4.07-3.49-8.86-6.9-14.38-10.24-5.52-3.34-11.62-6.03-18.31-8.06l-2.62-21.36h-26.15l-2.18,21.36c-6.68,2.03-12.79,4.72-18.31,8.06-5.52,3.34-10.31,6.76-14.38,10.24l-18.31-8.72-15.25,23.97,16.56,13.08c-1.45,5.52-2.18,11.55-2.18,18.09s.73,12.57,2.18,18.09l-16.56,13.08,15.25,23.54,18.31-8.72c4.07,3.78,8.86,7.34,14.38,10.68,5.52,3.34,11.62,6.03,18.31,8.06l2.18,20.92h26.15l2.62-20.92c6.68-2.03,12.79-4.72,18.31-8.06,5.52-3.34,10.31-6.9,14.38-10.68l18.31,8.72,15.25-23.54-16.56-13.08c1.45-5.52,2.18-11.55,2.18-18.09s-.73-12.57-2.18-18.09l16.56-13.08-15.25-23.97ZM311.2,258.89c-8.43,8.43-19.03,12.64-31.82,12.64s-23.39-4.21-31.82-12.64c-8.43-8.43-12.64-19.03-12.64-31.82s4.21-23.39,12.64-31.82c8.43-8.43,19.03-12.64,31.82-12.64s23.39,4.21,31.82,12.64c8.43,8.43,12.64,19.03,12.64,31.82s-4.21,23.39-12.64,31.82Z"/>
</svg>