<?xml version="1.0" encoding="UTF-8"?>
<svg id="Calque_1" data-name="Calque 1" xmlns="http://www.w3.org/2000/svg" viewBox="0 0 348.68 296.38">
  <defs>
    <style>
      .cls-1 {
        fill: #00a1d3;
      }
    </style>
  </defs>
  <rect class="cls-1" x="215.31" y="108.96" width="26.15" height="26.15"/>
  <rect class="cls-1" x="161.26" y="54.48" width="26.15" height="26.15"/>
  <rect class="cls-1" x="107.65" y="108.96" width="26.15" height="26.15"/>
  <rect class="cls-1" x="161.26" y="108.96" width="26.15" height="26.15"/>
  <rect class="cls-1" x="107.65" y="54.48" width="26.15" height="26.15"/>
  <path class="cls-1" d="M95.89,189.59h124.65c1.45-4.94,3.12-9.52,5.01-13.73s4.29-8.35,7.19-12.42H95.89v26.15Z"/>
  <rect class="cls-1" x="268.92" y="54.48" width="26.15" height="26.15"/>
  <path class="cls-1" d="M322.53,0H26.15C19.18,0,13.08,2.62,7.85,7.85,2.62,13.08,0,19.18,0,26.15v191.77C0,224.61,2.62,230.64,7.85,236.01c5.23,5.38,11.33,8.06,18.31,8.06h192.21v-26.15H26.15V26.15h296.38v110.71c4.94,2.03,9.6,4.36,13.99,6.97,4.38,2.61,8.44,5.81,12.16,9.59V26.15c0-6.97-2.62-13.08-7.85-18.31C335.6,2.62,329.5,0,322.53,0Z"/>
  <path class="cls-1" d="M268.92,135.11c4.07-1.16,8.21-2.03,12.42-2.61,4.21-.58,8.79-.87,13.73-.87v-22.66h-26.15v26.15Z"/>
  <path class="cls-1" d="M330.81,206.59h-.44v-17.43c0-10.46-3.34-19.32-10.02-26.59s-15.11-10.9-25.28-10.9-18.67,3.63-25.5,10.9c-6.83,7.26-10.24,16.13-10.24,26.59v17.43c-4.36,0-8.5,1.96-12.42,5.88s-5.88,8.06-5.88,12.42v53.17c0,4.36,1.96,8.5,5.88,12.42s8.06,5.88,12.42,5.88h71.48c4.07,0,8.06-1.96,11.99-5.88s5.88-8.06,5.88-12.42v-53.17c0-4.36-1.96-8.5-5.88-12.42s-7.92-5.88-11.99-5.88ZM313.38,206.59h-36.61v-17.43c0-5.68,1.6-10.44,4.79-14.28,3.2-3.84,7.63-5.77,13.29-5.77s10.17,1.92,13.51,5.77c3.34,3.84,5.01,8.6,5.01,14.28v17.43Z"/>
  <rect class="cls-1" x="53.61" y="108.96" width="26.15" height="26.15"/>
  <rect class="cls-1" x="215.31" y="54.48" width="26.15" height="26.15"/>
  <rect class="cls-1" x="53.61" y="54.48" width="26.15" height="26.15"/>
</svg>