<?xml version="1.0" encoding="UTF-8"?>
<svg id="Calque_1" data-name="Calque 1" xmlns="http://www.w3.org/2000/svg" viewBox="0 0 373.43 289.88">
  <defs>
    <style>
      .cls-1 {
        fill: #00a1d3;
      }
    </style>
  </defs>
  <path class="cls-1" d="M75.03,220.39c33.53,23.59,71.05,35.38,112.54,35.38,6.44,0,12.88-.28,19.32-.85,6.44-.57,12.79-1.56,19.04-2.98v-26c-6.39,1.42-12.79,2.49-19.18,3.2-6.39.71-12.79,1.07-19.18,1.07-34.45,0-66.09-9.31-94.9-27.92-28.81-18.61-50.89-43.41-66.24-74.39,15.35-30.98,37.43-55.77,66.24-74.39,28.81-18.61,60.45-27.92,94.9-27.92s64.42,8.88,92.88,26.64c28.46,17.76,50.36,41.56,65.7,71.4h27.28c-17.05-37.23-42.13-67.14-75.24-89.73C265.08,11.3,228.21,0,187.57,0s-79.01,11.79-112.54,35.38C41.49,58.97,16.48,89.8,0,127.89c16.48,38.08,41.49,68.92,75.03,92.5Z"/>
  <path class="cls-1" d="M258.76,140.25c.57-2.27.92-4.33,1.07-6.18s.21-3.91.21-6.18c0-20.13-7.05-37.24-21.15-51.33-14.1-14.09-31.22-21.14-51.37-21.14s-37.25,7.05-51.32,21.15c-14.07,14.1-21.1,31.22-21.1,51.37s7.04,37.25,21.14,51.32c14.09,14.07,31.2,21.1,51.33,21.1,7.44,0,14.63-1.07,21.57-3.2,6.93-2.13,13.24-5.19,18.93-9.17,2.27-9.66,6.04-18.61,11.3-26.86,5.26-8.24,11.72-15.2,19.4-20.89ZM221.35,161.78c-9.3,9.24-20.6,13.85-33.89,13.85s-24.55-4.65-33.79-13.96c-9.24-9.3-13.85-20.6-13.85-33.89s4.65-24.55,13.96-33.79c9.3-9.24,20.6-13.85,33.89-13.85s24.55,4.65,33.79,13.96c9.24,9.3,13.85,20.6,13.85,33.89s-4.65,24.55-13.96,33.79Z"/>
  <path class="cls-1" d="M358.08,223.8c0-3.98-1.63-7.46-4.9-10.44-3.27-2.98-7.32-4.48-12.15-4.48v-19.18c0-8.79-3.13-16.32-9.38-22.58-6.25-6.26-13.78-9.39-22.58-9.39s-16.33,3.13-22.59,9.39c-6.26,6.26-9.4,13.79-9.4,22.58v19.18c-4.83,0-8.88,1.49-12.15,4.48-3.27,2.98-4.9,6.47-4.9,10.44v51.15c0,3.98,1.49,7.46,4.48,10.44s6.47,4.48,10.44,4.48h68.21c3.98,0,7.46-1.49,10.44-4.48,2.98-2.98,4.48-6.47,4.48-10.44v-51.15ZM328.24,208.88h-38.37v-19.18c0-5.44,1.85-9.99,5.54-13.67,3.69-3.68,8.25-5.52,13.68-5.52s9.97,1.85,13.64,5.54c3.67,3.69,5.5,8.25,5.5,13.68v19.14Z"/>
</svg>