<?xml version="1.0" encoding="UTF-8"?>
<svg id="Calque_1" data-name="Calque 1" xmlns="http://www.w3.org/2000/svg" viewBox="0 0 278.94 348.68">
  <defs>
    <style>
      .cls-1 {
        fill: #00a1d3;
      }
    </style>
  </defs>
  <path class="cls-1" d="M0,52.3v103.73C0,200.2,13.08,240.81,39.23,277.85c26.15,37.05,59.57,60.66,100.25,70.83,13.37-3.2,27.1-8.94,41.19-17.22,14.09-8.28,26.22-17.07,36.39-26.37l-18.31-18.74c-6.97,6.68-16.49,13.66-28.55,20.92-12.06,7.26-22.27,12.06-30.64,14.38-33.47-11.04-60.74-31.89-81.81-62.54-21.07-30.66-31.6-65.01-31.6-103.08v-86.51l113.32-41.2,113.32,41.2v86.51c0,15.69-1.74,31.31-5.23,46.85-3.49,15.55-8.72,29.57-15.69,42.06l-38.35-36.61c3.78-4.94,6.54-10.46,8.28-16.56,1.74-6.1,2.61-12.2,2.61-18.31,0-18.31-6.32-33.78-18.96-46.42s-27.97-18.96-45.98-18.96-33.34,6.32-45.98,18.96-18.96,28.04-18.96,46.2,6.32,33.49,18.96,45.98c12.64,12.49,27.97,18.74,45.98,18.74,6.3,0,12.52-1.02,18.67-3.05,6.15-2.03,11.98-4.65,17.5-7.85l61.02,58.4c15.69-19.18,26.66-39.88,32.91-62.11,6.25-22.23,9.37-44.67,9.37-67.34V52.3L139.47,0,0,52.3ZM166.93,200.71c-7.55,7.41-16.68,11.11-27.37,11.11s-19.84-3.7-27.46-11.11c-7.61-7.41-11.42-16.56-11.42-27.46s3.78-20.12,11.33-27.68c7.55-7.55,16.68-11.33,27.37-11.33s19.84,3.78,27.46,11.33c7.61,7.55,11.42,16.78,11.42,27.68s-3.78,20.05-11.33,27.46Z"/>
</svg>