<?xml version="1.0" encoding="UTF-8"?>
<svg id="Calque_1" data-name="Calque 1" xmlns="http://www.w3.org/2000/svg" viewBox="0 0 409.24 392.19">
  <defs>
    <style>
      .cls-1 {
        fill: #00a1d3;
      }
    </style>
  </defs>
  <path class="cls-1" d="M360.64,113.39c-13.5,0-24.97,4.73-34.42,14.17-9.45,9.45-14.17,20.92-14.17,34.42v1.71l-51.58,17.9c-5.12-9.09-11.37-16.06-18.76-20.89-7.39-4.83-15.49-8.24-24.3-10.23v-54.99c10.8-3.13,19.47-9.24,26-18.33,6.54-9.09,9.8-18.61,9.8-28.56,0-13.5-4.73-24.97-14.17-34.42C229.59,4.72,218.12,0,204.62,0s-24.97,4.72-34.42,14.17c-9.45,9.45-14.17,20.92-14.17,34.42,0,9.95,3.2,19.47,9.59,28.56,6.39,9.09,15.13,15.2,26.22,18.33v54.99c-8.81,1.99-16.84,5.4-24.09,10.23-7.25,4.83-13.43,11.79-18.54,20.89l-52.01-17.9v-1.71c0-13.5-4.72-24.97-14.17-34.42-9.45-9.45-20.92-14.17-34.42-14.17s-24.97,4.73-34.42,14.17C4.72,137.02,0,148.49,0,161.99s4.72,24.97,14.17,34.42c9.45,9.45,20.92,14.17,34.42,14.17,9.09,0,17.12-1.99,24.09-5.97,6.96-3.98,12.58-9.52,16.84-16.62l51.58,17.48c-1.42,9.09-.71,17.83,2.13,26.22,2.84,8.38,6.96,15.84,12.36,22.38l-36.23,45.19c-3.13-1.42-6.18-2.49-9.17-3.2-2.98-.71-6.47-1.07-10.44-1.07-13.5,0-24.97,4.73-34.42,14.17-9.45,9.45-14.17,20.92-14.17,34.42s4.72,24.97,14.17,34.42,20.92,14.17,34.42,14.17,24.97-4.73,34.42-14.17c9.45-9.45,14.17-20.92,14.17-34.42,0-5.68-.78-10.73-2.34-15.13-1.56-4.41-3.77-8.74-6.61-13l35.81-45.61c9.09,4.83,18.82,7.25,29.18,7.25s20.1-2.42,29.23-7.25l36.23,45.19c-2.84,4.26-5.04,8.67-6.61,13.21-1.56,4.55-2.34,9.66-2.34,15.35,0,13.5,4.72,24.97,14.17,34.42s20.92,14.17,34.42,14.17,24.97-4.73,34.42-14.17,14.17-20.92,14.17-34.42-4.69-24.97-14.07-34.42c-9.38-9.45-20.95-14.17-34.72-14.17-3.85,0-7.27.36-10.26,1.07-2.98.71-6.04,1.78-9.17,3.2l-36.23-45.19c5.68-6.54,9.88-14,12.58-22.38,2.7-8.38,3.34-17.12,1.92-26.22l51.58-17.48c3.98,7.1,9.52,12.65,16.63,16.62s15.2,5.97,24.3,5.97c13.5,0,24.97-4.73,34.42-14.17,9.45-9.45,14.17-20.92,14.17-34.42s-4.73-24.97-14.17-34.42c-9.45-9.45-20.92-14.17-34.42-14.17ZM65.01,178.38c-4.41,4.42-9.87,6.62-16.4,6.62s-12-2.2-16.41-6.61c-4.42-4.41-6.62-9.87-6.62-16.4s2.2-12,6.61-16.41c4.41-4.42,9.87-6.62,16.4-6.62s12,2.2,16.41,6.61c4.42,4.41,6.62,9.87,6.62,16.4s-2.2,12-6.61,16.41ZM116.16,359.98c-4.41,4.42-9.87,6.62-16.4,6.62s-12-2.2-16.41-6.61c-4.42-4.41-6.62-9.87-6.62-16.4s2.2-12,6.61-16.41c4.41-4.42,9.87-6.62,16.4-6.62s12,2.2,16.41,6.61c4.42,4.41,6.62,9.87,6.62,16.4s-2.2,12-6.61,16.41ZM188.22,65.01c-4.42-4.41-6.62-9.87-6.62-16.4s2.2-12,6.61-16.41c4.41-4.42,9.87-6.62,16.4-6.62s12,2.2,16.41,6.61c4.42,4.4,6.62,9.87,6.62,16.4s-2.2,12-6.61,16.41c-4.41,4.42-9.87,6.62-16.4,6.62s-12-2.2-16.41-6.61ZM231.9,240.21c-7.39,7.53-16.41,11.3-27.07,11.3s-19.75-3.77-27.28-11.3c-7.53-7.53-11.3-16.55-11.3-27.07s3.77-19.82,11.3-27.24,16.55-11.13,27.07-11.13,19.82,3.69,27.24,11.08c7.42,7.39,11.13,16.41,11.13,27.07s-3.69,19.75-11.08,27.28ZM293.07,327.19c4.41-4.42,9.87-6.62,16.4-6.62s12,2.2,16.41,6.61c4.42,4.41,6.62,9.87,6.62,16.4s-2.2,12-6.61,16.41c-4.41,4.42-9.87,6.62-16.4,6.62s-12-2.2-16.41-6.61c-4.42-4.41-6.62-9.87-6.62-16.4s2.2-12,6.61-16.41ZM377.05,178.38c-4.41,4.42-9.87,6.62-16.4,6.62s-12-2.2-16.41-6.61c-4.42-4.41-6.62-9.87-6.62-16.4s2.2-12,6.61-16.41c4.41-4.42,9.87-6.62,16.4-6.62s12,2.2,16.41,6.61c4.42,4.41,6.62,9.87,6.62,16.4s-2.2,12-6.61,16.41Z"/>
</svg>