<?xml version="1.0" encoding="UTF-8"?>
<svg id="Calque_1" data-name="Calque 1" xmlns="http://www.w3.org/2000/svg" viewBox="0 0 341.03 272.82">
  <defs>
    <style>
      .cls-1 {
        fill: #00a1d3;
      }
    </style>
  </defs>
  <path class="cls-1" d="M25.58,272.83h289.88c6.82,0,12.79-2.56,17.9-7.67s7.67-11.08,7.67-17.9V25.58c0-6.82-2.56-12.79-7.67-17.9C328.24,2.56,322.27,0,315.45,0H25.58C18.76,0,12.79,2.56,7.67,7.67,2.56,12.79,0,18.76,0,25.58v221.67c0,6.82,2.56,12.79,7.67,17.9s11.08,7.67,17.9,7.67ZM247.67,82.7h67.78v164.55h-67.78V82.7ZM25.58,82.7h196.52v69.49H25.58v-69.49ZM25.58,177.76h196.52v69.49H25.58v-69.49Z"/>
</svg>