<?xml version="1.0" encoding="UTF-8"?>
<svg id="Calque_1" data-name="Calque 1" xmlns="http://www.w3.org/2000/svg" viewBox="0 0 375.13 306.93">
  <defs>
    <style>
      .cls-1 {
        fill: #00a1d3;
      }
    </style>
  </defs>
  <polygon class="cls-1" points="260.04 91.65 241.71 73.75 169.52 146.22 133.43 109.98 115.1 127.89 169.66 182.03 260.04 91.65"/>
  <rect class="cls-1" x="0" y="281.35" width="375.13" height="25.58"/>
  <path class="cls-1" d="M24.72,7.67c-5.12,5.12-7.67,11.08-7.67,17.9v204.62c0,6.82,2.56,12.79,7.67,17.9s11.08,7.67,17.9,7.67h289.88c6.82,0,12.79-2.56,17.9-7.67s7.67-11.08,7.67-17.9V25.58c0-6.82-2.56-12.79-7.67-17.9S339.33,0,332.51,0H42.63C35.81,0,29.84,2.56,24.72,7.67ZM332.51,230.2H42.63V25.58h289.88v204.62Z"/>
</svg>