<?xml version="1.0" encoding="UTF-8"?>
<svg id="Calque_1" data-name="Calque 1" xmlns="http://www.w3.org/2000/svg" viewBox="0 0 291.41 291.41">
  <defs>
    <style>
      .cls-1 {
        fill: #00a1d3;
      }
    </style>
  </defs>
  <path class="cls-1" d="M43.35,206.42l101.63,59.5,103.09-59.5v-118.99l-102.36-60.47-102.36,60.47v118.99ZM226.21,193.06l-69.57,41.53v-81.59l69.57-39.7v79.77ZM145.7,53.55l69.21,39.7-69.21,40.07-69.21-40.07,69.21-39.7ZM65.57,113.29l69.21,39.7v81.59l-69.21-41.53v-79.77Z"/>
  <polygon class="cls-1" points="291.41 222.56 269.55 222.56 269.55 269.55 222.56 269.55 222.56 291.41 291.41 291.41 291.41 222.56"/>
  <polygon class="cls-1" points="0 291.41 68.85 291.41 68.85 269.55 21.86 269.55 21.86 222.56 0 222.56 0 291.41"/>
  <polygon class="cls-1" points="0 68.85 21.86 68.85 21.86 21.86 68.85 21.86 68.85 0 0 0 0 68.85"/>
  <polygon class="cls-1" points="291.41 0 222.56 0 222.56 21.86 269.55 21.86 269.55 68.85 291.41 68.85 291.41 0"/>
</svg>