<?xml version="1.0" encoding="UTF-8"?>
<svg id="Calque_1" data-name="Calque 1" xmlns="http://www.w3.org/2000/svg" viewBox="0 0 348.68 313.81">
  <defs>
    <style>
      .cls-1 {
        fill: #00a1d3;
      }
    </style>
  </defs>
  <path class="cls-1" d="M112.75,164.97c-2.52,2.47-3.78,5.57-3.78,9.29s1.24,6.85,3.7,9.37c2.47,2.52,5.57,3.78,9.29,3.78s6.85-1.24,9.37-3.7c2.52-2.47,3.78-5.57,3.78-9.29s-1.24-6.85-3.7-9.37c-2.47-2.52-5.57-3.78-9.29-3.78s-6.85,1.23-9.37,3.7Z"/>
  <path class="cls-1" d="M217.35,164.97c-2.52,2.47-3.78,5.57-3.78,9.29s1.24,6.85,3.7,9.37c2.47,2.52,5.57,3.78,9.29,3.78s6.85-1.24,9.37-3.7c2.52-2.47,3.78-5.57,3.78-9.29s-1.24-6.85-3.7-9.37c-2.47-2.52-5.57-3.78-9.29-3.78s-6.85,1.23-9.37,3.7Z"/>
  <path class="cls-1" d="M34.87,261.51h8.72v-106.35c0-35.94,12.69-66.43,38.06-91.46,25.37-25.04,56.27-37.55,92.7-37.55s67.32,12.52,92.7,37.55c25.37,25.03,38.06,55.52,38.06,91.46v132.5h-148.19v26.15h148.19c7.19,0,13.35-2.56,18.47-7.68,5.12-5.12,7.68-11.28,7.68-18.47v-30.07c5.52-2.62,9.81-6.54,12.86-11.77,3.05-5.23,4.58-10.75,4.58-16.56v-40.1c0-5.81-1.53-11.33-4.58-16.56-3.05-5.23-7.34-9.15-12.86-11.77l-1.31-22.66c-2.62-19.76-8.43-38.06-17.43-54.92-9.01-16.85-20.48-31.45-34.43-43.8-13.95-12.35-29.78-22.01-47.51-28.98C212.84,3.49,194.1,0,174.34,0s-38.57,3.49-56.44,10.46c-17.87,6.97-33.71,16.71-47.51,29.2-13.8,12.49-25.28,27.17-34.43,44.02-9.15,16.85-14.89,35.16-17.22,54.92l-1.31,23.1c-5.52,3.2-9.81,7.48-12.86,12.86C1.53,179.93,0,185.67,0,191.77v34.87C0,236.23,3.41,244.44,10.24,251.27c6.83,6.83,15.04,10.24,24.63,10.24Z"/>
  <path class="cls-1" d="M204.2,118.12c21.36,14.24,44.96,21.5,70.83,21.79-4.07-24.99-15.4-45.84-34-62.54-18.6-16.71-40.53-25.06-65.81-25.06-30.8,0-56.51,11.04-77.15,33.12-20.63,22.08-29.93,48.52-27.89,79.32,21.79-9.01,40.17-22.59,55.14-40.75s24.73-38.86,29.3-62.11c11.7,23.25,28.23,41.99,49.59,56.22Z"/>
</svg>