<?xml version="1.0" encoding="UTF-8"?>
<svg id="Calque_1" data-name="Calque 1" xmlns="http://www.w3.org/2000/svg" viewBox="0 0 359.58 337.35">
  <defs>
    <style>
      .cls-1 {
        fill: #00a1d3;
      }
    </style>
  </defs>
  <path class="cls-1" d="M357.83,288.97c1.16-2.91,1.74-5.93,1.74-9.08V53.17c0-6.97-2.62-13.08-7.85-18.31-5.23-5.23-11.33-7.85-18.31-7.85H83.25l26.15,26.15h222.28l-134.68,87.61,15.69,15.69,120.73-79.32v200.06l19.61,19.61c2.03-2.32,3.63-4.94,4.79-7.85Z"/>
  <path class="cls-1" d="M10.9,279.82c0,6.97,2.62,13.08,7.85,18.31,5.23,5.23,11.33,7.85,18.31,7.85h250.18l31.38,31.38,18.74-18.74L18.74,0,0,18.74l17.48,17.48c-4.38,4.92-6.58,10.57-6.58,16.96v226.64ZM261.07,279.82H37.05V55.79l224.03,224.03Z"/>
</svg>