<?xml version="1.0" encoding="UTF-8"?>
<svg id="Calque_1" data-name="Calque 1" xmlns="http://www.w3.org/2000/svg" viewBox="0 0 317.3 313.81">
  <defs>
    <style>
      .cls-1 {
        fill: #00a1d3;
      }
    </style>
  </defs>
  <path class="cls-1" d="M147.75,137.29c4.94,0,9.08-1.67,12.42-5.01,3.34-3.34,5.01-7.48,5.01-12.42s-1.67-9.08-5.01-12.42c-3.34-3.34-7.48-5.01-12.42-5.01s-9.08,1.67-12.42,5.01-5.01,7.48-5.01,12.42,1.67,9.08,5.01,12.42c3.34,3.34,7.48,5.01,12.42,5.01Z"/>
  <path class="cls-1" d="M223.16,137.29c5.06,0,9.31-1.67,12.73-5.01,3.43-3.34,5.14-7.48,5.14-12.42s-1.71-9.08-5.14-12.42-7.67-5.01-12.73-5.01-8.85,1.67-12.11,5.01-4.89,7.48-4.89,12.42,1.63,9.08,4.89,12.42,7.29,5.01,12.11,5.01Z"/>
  <path class="cls-1" d="M93.71,220.1c29.93,29.93,62.4,53.03,97.41,69.3,35.01,16.27,69.37,24.41,103.08,24.41,5.6,0,10.27-1.87,14.01-5.6,3.74-3.73,5.61-8.4,5.61-14.01v-58.84c0-4.33-1.45-8.25-4.36-11.75-2.91-3.5-6.54-5.83-10.9-6.99l-51.87-11.33c-3.69-.58-7.45-.29-11.27.87-3.82,1.16-7.18,3.34-10.09,6.54l-41.41,42.71c-13.08-6.97-25.57-15.04-37.48-24.19-11.91-9.15-23.25-19.25-34-30.29-10.17-9.88-19.47-20.34-27.89-31.38-8.43-11.04-16.42-22.95-23.97-35.74l43.48-43.92c2.39-2.39,3.95-5.26,4.68-8.6s.79-7.1.19-11.27l-11.74-54.76c-1.16-4.36-3.2-7.99-6.1-10.9C88.19,1.45,84.7,0,80.63,0H19.61C14.01,0,9.34,1.87,5.61,5.6,1.87,9.34,0,14.01,0,19.61,0,53.32,8.14,87.68,24.41,122.69c16.27,35.01,39.37,67.48,69.3,97.41ZM242.77,231.87l44.89,9.15v46.64c-13.08-.58-26.59-2.62-40.53-6.1-13.95-3.49-26.88-7.99-38.79-13.51l34.43-36.18ZM72.79,26.15l10.02,47.94-35.3,35.74c-6.97-16.56-12.13-31.6-15.47-45.11-3.34-13.51-5.3-26.37-5.88-38.57h46.64Z"/>
  <path class="cls-1" d="M300.3,137.29c4.82,0,8.85-1.67,12.11-5.01s4.89-7.48,4.89-12.42-1.63-9.08-4.89-12.42c-3.26-3.34-7.29-5.01-12.11-5.01-5.06,0-9.31,1.67-12.73,5.01s-5.14,7.48-5.14,12.42,1.71,9.08,5.14,12.42,7.67,5.01,12.73,5.01Z"/>
</svg>