<?xml version="1.0" encoding="UTF-8"?>
<svg id="Calque_1" data-name="Calque 1" xmlns="http://www.w3.org/2000/svg" viewBox="0 0 341.03 341.03">
  <defs>
    <style>
      .cls-1 {
        fill: #00a1d3;
      }
    </style>
  </defs>
  <path class="cls-1" d="M170.52,225.93c15.35,0,28.42-5.4,39.22-16.2,10.8-10.8,16.2-23.87,16.2-39.22s-5.4-28.42-16.2-39.22c-10.8-10.8-23.87-16.2-39.22-16.2s-28.42,5.4-39.22,16.2c-10.8,10.8-16.2,23.87-16.2,39.22s5.4,28.42,16.2,39.22c10.8,10.8,23.87,16.2,39.22,16.2Z"/>
  <path class="cls-1" d="M39.64,291.58l50.3-23.02c4.55,3.69,9.8,7.25,15.77,10.66,5.97,3.41,11.65,6.11,17.05,8.1l8.53,53.71h78.44l8.53-53.71c5.68-1.71,11.44-4.33,17.26-7.89s11.01-7.18,15.56-10.87l50.3,23.02,39.64-69.91-46.04-33.25c.57-2.84.92-5.83,1.07-8.95s.21-6.11.21-8.95-.07-5.9-.21-9.17c-.14-3.27-.5-6.32-1.07-9.17l46.04-32.82-39.64-69.91-50.3,23.02c-4.26-3.98-9.45-7.6-15.56-10.87-6.11-3.27-11.87-5.9-17.26-7.89L209.73,0h-78.44l-8.53,54.14c-5.4,1.71-11.08,4.26-17.05,7.67-5.97,3.41-11.23,6.96-15.77,10.66l-50.3-23.02L0,119.36l46.04,33.68c-.57,2.56-.92,5.47-1.07,8.74-.14,3.27-.21,6.18-.21,8.74s.07,5.47.21,8.74c.14,3.27.5,6.18,1.07,8.74L0,221.67l39.65,69.91ZM74.17,199.08c-1.14-4.83-2.06-9.59-2.77-14.28-.71-4.69-1.07-9.45-1.07-14.28s.36-9.59,1.07-14.28c.71-4.69,1.63-9.45,2.77-14.28l-40.07-29.41,17.05-30.69,45.19,19.61c6.54-7.1,14-13.07,22.38-17.9s17.41-8.24,27.07-10.23l5.97-47.74h37.51l5.97,47.74c9.95,1.42,19.04,4.62,27.28,9.59,8.24,4.97,15.63,11.15,22.17,18.54l45.19-19.61,17.05,30.69-40.07,29.41c1.42,4.83,2.42,9.59,2.98,14.28.57,4.69.85,9.45.85,14.28s-.36,9.59-1.07,14.28c-.71,4.69-1.63,9.45-2.77,14.28l40.07,29.41-17.05,30.69-45.19-19.61c-6.82,6.82-14.42,12.65-22.81,17.48-8.38,4.83-17.26,8.38-26.64,10.66l-5.97,47.74h-37.51l-5.97-47.74c-9.38-2.27-18.26-5.83-26.64-10.66s-15.99-10.66-22.81-17.48l-45.19,19.61-17.05-30.69,40.07-29.41Z"/>
</svg>