<?xml version="1.0" encoding="UTF-8"?>
<svg id="Calque_1" data-name="Calque 1" xmlns="http://www.w3.org/2000/svg" viewBox="0 0 384.06 279.31">
  <defs>
    <style>
      .cls-1 {
        fill: #00a1d3;
      }
    </style>
  </defs>
  <rect class="cls-1" x="0" y="126.56" width="87.29" height="26.19"/>
  <path class="cls-1" d="M343.47,40.59C316.41,13.53,283.39,0,244.4,0s-72.01,13.53-99.07,40.59c-27.06,27.06-40.59,60.08-40.59,99.07s13.53,72.01,40.59,99.07c27.06,27.06,60.08,40.59,99.07,40.59s72.01-13.53,99.07-40.59c27.06-27.06,40.59-60.08,40.59-99.07s-13.53-72.01-40.59-99.07ZM324.7,220.06c-22.11,22.04-48.92,33.06-80.41,33.06s-58.26-11.06-80.3-33.17c-22.04-22.11-33.06-48.92-33.06-80.41s11.06-58.26,33.17-80.3c22.11-22.04,48.91-33.06,80.41-33.06s58.26,11.06,80.3,33.17c22.04,22.11,33.06,48.91,33.06,80.41s-11.06,58.26-33.17,80.3Z"/>
  <rect class="cls-1" x="17.46" y="196.39" width="69.83" height="26.19"/>
  <rect class="cls-1" x="17.46" y="56.74" width="69.83" height="26.19"/>
  <polygon class="cls-1" points="257.49 69.83 231.31 69.83 231.31 144.89 288.92 202.07 307.24 183.74 257.49 133.98 257.49 69.83"/>
</svg>