<?xml version="1.0" encoding="UTF-8"?>
<svg id="Calque_1" data-name="Calque 1" xmlns="http://www.w3.org/2000/svg" viewBox="0 0 340.33 379.08">
  <defs>
    <style>
      .cls-1 {
        fill: #00a1d3;
      }
    </style>
  </defs>
  <path class="cls-1" d="M62.15,236.74c2.39,2.01,5.26,3.02,8.59,3.02h200.43c3.12,0,5.93-1.01,8.43-3.02,2.5-2.01,3.75-4.93,3.75-8.77v-75.88c0-.99-.14-1.94-.4-2.86.27-1.08.4-2.24.4-3.47v-77.23c0-3.13-.99-5.6-2.97-7.42-1.98-1.82-4.63-2.73-7.96-2.73H69.18c-3.12,0-5.67.91-7.65,2.73-1.98,1.82-2.97,4.29-2.97,7.42v77.23c0,1.16.13,2.24.36,3.27-.24.98-.36,2-.36,3.06v75.88c0,3.83,1.2,6.75,3.59,8.77ZM264.62,222.51H77.3v-64.96h187.32v64.96ZM77.3,75.63h187.32v64.67H77.3v-64.67Z"/>
  <path class="cls-1" d="M0,25.92v327.24c0,14.3,11.63,25.92,25.93,25.92h288.47c14.3,0,25.93-11.63,25.93-25.92V25.92C340.33,11.63,328.7,0,314.4,0H25.93C11.63,0,0,11.63,0,25.92ZM22.91,25.92c0-1.66,1.35-3.01,3.01-3.01h288.47c1.66,0,3.01,1.35,3.01,3.01v327.24c0,1.66-1.35,3.01-3.01,3.01H25.93c-1.66,0-3.01-1.35-3.01-3.01V25.92Z"/>
  <path class="cls-1" d="M170.16,265.93c-18.34,0-33.27,14.93-33.27,33.27s14.93,33.26,33.27,33.26,33.27-14.92,33.27-33.26-14.93-33.27-33.27-33.27ZM170.16,317.19c-9.92,0-17.99-8.07-17.99-17.99s8.07-17.99,17.99-17.99,17.99,8.07,17.99,17.99-8.07,17.99-17.99,17.99Z"/>
  <rect class="cls-1" x="102.87" y="95.18" width="25.58" height="25.58"/>
  <rect class="cls-1" x="102.87" y="177.24" width="25.58" height="25.58"/>
</svg>