<?xml version="1.0" encoding="UTF-8"?>
<svg id="Calque_1" data-name="Calque 1" xmlns="http://www.w3.org/2000/svg" viewBox="0 0 341.03 341.46">
  <defs>
    <style>
      .cls-1 {
        fill: #00a1d3;
      }
    </style>
  </defs>
  <polygon class="cls-1" points="330.8 242.98 242.98 242.98 242.98 330.8 268.56 330.8 268.56 286.89 323.13 341.46 341.03 323.13 286.47 268.56 330.8 268.56 330.8 242.98"/>
  <path class="cls-1" d="M49.88,291.16c15.35,15.35,33.39,27.5,54.14,36.45s42.91,13.43,66.5,13.43c6.54,0,12.93-.36,19.18-1.07,6.25-.71,12.65-1.78,19.18-3.2v-25.58c-6.54,1.42-12.93,2.49-19.18,3.2-6.25.71-12.65,1.07-19.18,1.07-11.94-9.95-20.75-22.17-26.43-36.66s-10.52-29.27-14.49-44.33h79.29v-25.58h-83.98c-.85-6.25-1.49-12.5-1.92-18.76s-.64-12.58-.64-18.97.21-12.79.64-19.18c.43-6.39,1.13-12.86,2.1-19.4h91.47c.85,6.47,1.49,12.93,1.92,19.4.43,6.46.64,12.93.64,19.4s-.21,12.5-.64,18.76-1.07,12.5-1.92,18.76h26c.71-6.25,1.24-12.5,1.6-18.76s.53-12.58.53-18.97-.28-12.79-.85-19.18c-.57-6.39-1.14-12.86-1.71-19.4h68.3c1.67,6.48,2.93,12.96,3.76,19.44.84,6.48,1.26,12.96,1.26,19.44s-.43,12.8-1.28,18.96c-.85,6.16-2.13,12.31-3.84,18.47h26.86c1.42-6.25,2.42-12.43,2.98-18.54s.85-12.43.85-18.97c0-23.73-4.48-46.03-13.43-66.9-8.95-20.87-21.1-39.02-36.45-54.46-15.35-15.44-33.39-27.63-54.14-36.58C216.27,4.48,194.1,0,170.52,0s-45.76,4.48-66.5,13.43-38.79,21.15-54.14,36.58c-15.35,15.44-27.5,33.59-36.45,54.46C4.48,125.34,0,147.64,0,171.37s4.48,45.36,13.43,65.92c8.95,20.56,21.1,38.52,36.45,53.87ZM133.85,310.76c-20.75-5.12-39.36-14.35-55.84-27.71-16.48-13.36-29.41-29.56-38.79-48.6h64.37c2.84,13.64,6.75,26.86,11.72,39.65,4.97,12.79,11.15,25.01,18.54,36.66ZM262.17,59.25c16.48,13.07,29.7,28.99,39.64,47.74h-63.37c-3.22-13.64-7.32-26.93-12.29-39.86-4.97-12.93-11.3-25.22-18.97-36.87,20.18,6.25,38.51,15.91,54.99,28.99ZM170.52,24.72c10.8,11.08,19.47,23.73,26,37.94,6.54,14.21,11.65,28.99,15.35,44.33h-82.27c3.41-15.35,8.38-30.05,14.92-44.12,6.54-14.07,15.2-26.79,26-38.15ZM79.08,59.47c16.62-12.93,35.03-22.81,55.2-29.63-7.67,11.94-14,24.37-18.97,37.3-4.97,12.93-9.08,26.22-12.32,39.86h-63.77c9.95-18.76,23.23-34.6,39.86-47.53ZM26.83,152.01c.83-6.48,2.08-12.96,3.74-19.44h67.9c-.57,6.47-.99,12.93-1.28,19.4-.28,6.46-.43,12.93-.43,19.4s.18,12.5.53,18.76c.36,6.25.89,12.5,1.6,18.76H30.6c-1.67-6.16-2.93-12.32-3.76-18.47-.84-6.16-1.26-12.48-1.26-18.96s.42-12.96,1.25-19.44Z"/>
</svg>