<?xml version="1.0" encoding="UTF-8"?>
<svg id="Calque_1" data-name="Calque 1" xmlns="http://www.w3.org/2000/svg" viewBox="0 0 272.82 341.03">
  <defs>
    <style>
      .cls-1 {
        fill: #00a1d3;
      }
    </style>
  </defs>
  <path class="cls-1" d="M181.81,18.54C169.45,6.18,154.32,0,136.41,0s-33.04,6.18-45.4,18.54-18.54,27.5-18.54,45.4v4.26H25.58c-6.82,0-12.79,2.56-17.9,7.67C2.56,80.99,0,86.96,0,93.78v221.67c0,6.82,2.56,12.79,7.67,17.9s11.08,7.67,17.9,7.67h221.67c6.82,0,12.79-2.56,17.9-7.67,5.12-5.12,7.67-11.08,7.67-17.9V93.78c0-6.82-2.56-12.79-7.67-17.9-5.12-5.12-11.08-7.67-17.9-7.67h-46.89v-4.26c0-17.9-6.18-33.04-18.54-45.4ZM98.05,63.94c0-10.8,3.69-19.89,11.08-27.28,7.39-7.39,16.48-11.08,27.28-11.08s19.89,3.69,27.28,11.08c7.39,7.39,11.08,16.48,11.08,27.28v4.26h-76.73v-4.26ZM247.25,93.78v221.67H25.58V93.78h46.89v38.37c0,3.62,1.21,6.66,3.62,9.11,2.42,2.45,5.45,3.68,9.09,3.68s6.7-1.23,9.17-3.68c2.47-2.45,3.7-5.49,3.7-9.11v-38.37h76.73v38.37c0,3.62,1.21,6.66,3.62,9.11,2.42,2.45,5.45,3.68,9.09,3.68s6.7-1.23,9.17-3.68c2.47-2.45,3.7-5.49,3.7-9.11v-38.37h46.89Z"/>
</svg>