<?xml version="1.0" encoding="UTF-8"?>
<svg id="Calque_1" data-name="Calque 1" xmlns="http://www.w3.org/2000/svg" viewBox="0 0 287.94 359.93">
  <defs>
    <style>
      .cls-1 {
        fill: #00a1d3;
      }
    </style>
  </defs>
  <path class="cls-1" d="M143.97,359.93c41.99-10.5,76.48-34.87,103.48-73.11,26.99-38.24,40.49-80.16,40.49-125.75V53.99L143.97,0,0,53.99v107.08C0,206.66,13.5,248.58,40.49,286.82c26.99,38.24,61.49,62.61,103.48,73.11ZM26.99,72.89l116.98-44.09,116.98,44.09v88.18c0,39.29-10.87,74.76-32.62,106.4-21.75,31.64-49.87,53.16-84.36,64.56-34.49-11.4-62.61-32.92-84.36-64.56-21.75-31.64-32.62-67.11-32.62-106.4v-88.18Z"/>
  <path class="cls-1" d="M132.27,169.17l-11.25,65.24h45.89l-11.25-65.24c6-2.7,10.8-6.67,14.4-11.92,3.6-5.25,5.4-11.02,5.4-17.32,0-8.7-3.07-16.12-9.22-22.27-6.15-6.15-13.57-9.22-22.27-9.22s-16.12,3.07-22.27,9.22c-6.15,6.15-9.22,13.57-9.22,22.27,0,6.3,1.8,12.07,5.4,17.32,3.6,5.25,8.4,9.22,14.4,11.92Z"/>
</svg>