<?xml version="1.0" encoding="UTF-8"?>
<svg id="Calque_1" data-name="Calque 1" xmlns="http://www.w3.org/2000/svg" viewBox="0 0 383.55 313.81">
  <defs>
    <style>
      .cls-1 {
        fill: #00a1d3;
      }
    </style>
  </defs>
  <path class="cls-1" d="M26.15,313.81h313.81v-26.15H26.15V44.02H0v243.64C0,294.34,2.62,300.37,7.85,305.75c5.23,5.38,11.33,8.06,18.31,8.06Z"/>
  <path class="cls-1" d="M357.4,0H78.45C71.48,0,65.38,2.62,60.15,7.85c-5.23,5.23-7.85,11.33-7.85,18.31v209.21c0,6.68,2.62,12.71,7.85,18.09,5.23,5.38,11.33,8.06,18.31,8.06h278.94c6.97,0,13.08-2.69,18.31-8.06,5.23-5.38,7.85-11.4,7.85-18.09V26.15c0-6.97-2.62-13.08-7.85-18.31C370.47,2.62,364.37,0,357.4,0ZM355.22,26.15l-137.29,113.76L80.63,26.15h274.59ZM357.4,235.36H78.45V58.4l139.47,115.94,139.47-115.94v176.96Z"/>
</svg>