<?xml version="1.0" encoding="UTF-8"?>
<svg id="Calque_1" data-name="Calque 1" xmlns="http://www.w3.org/2000/svg" viewBox="0 0 287.94 359.93">
  <defs>
    <style>
      .cls-1 {
        fill: #00a1d3;
      }
    </style>
  </defs>
  <path class="cls-1" d="M0,161.07C0,206.66,13.5,248.58,40.49,286.82s61.49,62.61,103.48,73.11c41.99-10.5,76.48-34.87,103.48-73.11,26.99-38.24,40.49-80.16,40.49-125.75V53.99L143.97,0,0,53.99v107.08ZM26.99,72.89l116.98-44.09,116.98,44.09v88.18c0,39.29-10.87,74.76-32.62,106.4-21.75,31.64-49.87,53.16-84.36,64.56-34.49-11.4-62.61-32.92-84.36-64.56-21.75-31.64-32.62-67.11-32.62-106.4v-88.18Z"/>
  <polygon class="cls-1" points="226.76 137.67 207.86 119.23 125.53 201.56 80.08 156.12 60.29 175.92 124.18 240.25 226.76 137.67"/>
</svg>