<?xml version="1.0" encoding="UTF-8"?>
<svg id="Calque_1" data-name="Calque 1" xmlns="http://www.w3.org/2000/svg" viewBox="0 0 306.93 306.93">
  <defs>
    <style>
      .cls-1 {
        fill: #00a1d3;
      }
    </style>
  </defs>
  <path class="cls-1" d="M281.35,306.93c6.82,0,12.79-2.56,17.9-7.67,5.12-5.12,7.67-11.08,7.67-17.9V25.58c0-6.82-2.56-12.79-7.67-17.9C294.14,2.56,288.17,0,281.35,0H25.58C18.76,0,12.79,2.56,7.67,7.67,2.56,12.79,0,18.76,0,25.58v255.77c0,6.82,2.56,12.79,7.67,17.9,5.12,5.12,11.08,7.67,17.9,7.67h255.77ZM25.58,25.58h255.77v68.21H25.58V25.58ZM25.58,119.36h255.77v68.21H25.58v-68.21ZM25.58,213.14h255.77v68.21H25.58v-68.21Z"/>
  <rect class="cls-1" x="52.43" y="234.46" width="25.58" height="25.58"/>
  <rect class="cls-1" x="52.43" y="140.68" width="25.58" height="25.58"/>
  <rect class="cls-1" x="52.43" y="46.89" width="25.58" height="25.58"/>
</svg>