<?xml version="1.0" encoding="UTF-8"?>
<svg id="Calque_1" data-name="Calque 1" xmlns="http://www.w3.org/2000/svg" viewBox="0 0 383.55 275.46">
  <defs>
    <style>
      .cls-1 {
        fill: #00a1d3;
      }
    </style>
  </defs>
  <path class="cls-1" d="M308.58,128.14v-10.46c0-25.57-7.05-48.81-21.14-69.74S254.54,12.35,231,3.92v28.33c15.11,8.43,27.46,19.83,37.05,34.21,9.59,14.38,14.38,31.45,14.38,51.21v36.61h27.46c13.08,0,24.26,4.65,33.56,13.95,9.3,9.3,13.95,20.49,13.95,33.56s-4.65,24.26-13.95,33.56-20.48,13.95-33.56,13.95H91.96c-17.72,0-33.12-6.25-46.2-18.74-13.08-12.49-19.61-28.18-19.61-47.07s6.32-34.58,18.96-47.07,27.82-18.74,45.55-18.74h8.28c0-21.79,7.12-42.06,21.36-60.8,14.24-18.74,33.85-29.71,58.84-32.91v125.96l-36.18-36.18-18.74,18.74,67.99,67.99,67.99-67.99-18.74-18.74-36.18,36.18V21.79c0-6.68-2.62-11.99-7.85-15.91C192.21,1.96,186.11,0,179.13,0,154.44,0,132.35,9.37,112.89,28.11c-19.47,18.74-31.38,40.32-35.74,64.72-22.08,3.49-40.46,13.73-55.14,30.73C7.34,140.56,0,160.54,0,183.49,0,209.06,8.93,230.78,26.8,248.65c17.87,17.87,39.59,26.8,65.16,26.8h217.92c20.05,0,37.34-7.26,51.87-21.79,14.53-14.53,21.79-31.82,21.79-51.87,0-21.79-7.26-39.66-21.79-53.61-14.53-13.95-32.25-20.63-53.17-20.05Z"/>
</svg>