<?xml version="1.0" encoding="UTF-8"?>
<svg id="Calque_1" data-name="Calque 1" xmlns="http://www.w3.org/2000/svg" viewBox="0 0 339.41 339.41">
  <defs>
    <style>
      .cls-1 {
        fill: #00a1d3;
      }
    </style>
  </defs>
  <rect class="cls-1" x="135.76" y="103.94" width="138.31" height="25.46"/>
  <path class="cls-1" d="M214.68,339.41c4.53,0,8.49-1.27,11.88-3.82,3.39-2.55,5.09-5.94,5.09-10.18v-34.79h82.31v48.79h25.46V97.58c0-26.87-9.33-49.85-28-68.94C292.74,9.55,269.97,0,243.1,0h-73.4C142.27,0,118.86,9.4,99.49,28.21c-19.37,18.81-29.06,41.93-29.06,69.37v87.4H14c-3.96,0-7.28,1.34-9.97,4.03C1.34,191.7,0,195.02,0,198.98v126.43c0,3.96,1.34,7.28,4.03,9.97s6.01,4.03,9.97,4.03h200.68ZM95.88,97.58c0-20.36,7.21-37.48,21.64-51.34,14.42-13.86,31.82-20.79,52.18-20.79h73.4c19.8,0,36.56,7.07,50.28,21.21,13.72,14.14,20.58,31.11,20.58,50.91v167.58h-82.31v-66.19c0-4.24-1.7-7.64-5.09-10.18-3.39-2.55-7.35-3.82-11.88-3.82h-118.79v-87.4ZM206.19,210.44l-90.37,51.76-90.37-51.76h180.74ZM25.46,233.77l90.37,51.76,90.37-51.76v80.19H25.46v-80.19Z"/>
</svg>