<?xml version="1.0" encoding="UTF-8"?>
<svg id="Calque_1" data-name="Calque 1" xmlns="http://www.w3.org/2000/svg" viewBox="0 0 348.68 348.68">
  <defs>
    <style>
      .cls-1 {
        fill: #00a1d3;
      }
    </style>
  </defs>
  <path class="cls-1" d="M289.84,0h-26.15v58.84h-76.27V0h-26.15v58.84h-76.27V0h-26.15v58.84H0v26.15h58.84v76.27H0v26.15h58.84v76.27H0v26.15h58.84v58.84h26.15v-58.84h76.27v58.84h26.15v-58.84h76.27v58.84h26.15v-58.84h58.84v-26.15h-58.84v-76.27h58.84v-26.15h-58.84v-76.27h58.84v-26.15h-58.84V0ZM161.26,263.69h-76.27v-76.27h76.27v76.27ZM161.26,161.26h-76.27v-76.27h76.27v76.27ZM263.69,263.69h-76.27v-76.27h76.27v76.27ZM263.69,161.26h-76.27v-76.27h76.27v76.27Z"/>
</svg>