<?xml version="1.0" encoding="UTF-8"?>
<svg id="Calque_1" data-name="Calque 1" xmlns="http://www.w3.org/2000/svg" viewBox="0 0 306.93 306.93">
  <defs>
    <style>
      .cls-1 {
        fill: #00a1d3;
      }
    </style>
  </defs>
  <path class="cls-1" d="M294.14,0h-121.07c-3.62,0-6.66,1.22-9.11,3.67s-3.68,5.49-3.68,9.11v136.84l44.33-42.2h89.52c3.62,0,6.66-1.23,9.11-3.68s3.67-5.49,3.67-9.11V12.79c0-3.62-1.23-6.66-3.67-9.11C300.8,1.22,297.76,0,294.14,0ZM281.35,81.85h-95.49V25.58h95.49v56.27Z"/>
  <path class="cls-1" d="M292.01,211.87l-50.73-11.08c-3.61-.57-7.28-.28-11.02.85-3.74,1.14-7.03,3.27-9.87,6.39l-40.5,41.78c-12.79-6.82-25.01-14.71-36.66-23.66-11.65-8.95-22.74-18.83-33.25-29.63-9.95-9.66-19.04-19.89-27.28-30.69s-16.06-22.45-23.45-34.96l42.53-42.96c2.34-2.34,3.86-5.14,4.57-8.41.71-3.27.77-6.94.18-11.02l-11.48-53.56c-1.14-4.26-3.13-7.82-5.97-10.66C86.25,1.42,82.84,0,78.86,0H19.18C13.7,0,9.13,1.83,5.48,5.48,1.83,9.13,0,13.7,0,19.18,0,52.15,7.96,85.75,23.87,120c15.92,34.25,38.51,66,67.78,95.28,29.27,29.27,61.03,51.86,95.28,67.78,34.25,15.92,67.85,23.87,100.82,23.87,5.48,0,10.05-1.83,13.7-5.48,3.66-3.65,5.48-8.22,5.48-13.7v-57.55c0-4.24-1.42-8.07-4.26-11.49-2.84-3.42-6.39-5.7-10.66-6.84ZM31.33,63.3c-3.27-13.22-5.19-25.79-5.75-37.73h45.61l9.8,46.89-34.53,34.96c-6.82-16.2-11.87-30.91-15.13-44.12ZM281.35,281.35c-12.79-.57-26-2.56-39.64-5.97-13.64-3.41-26.29-7.82-37.94-13.21l33.68-35.38,43.91,8.95v45.61Z"/>
</svg>