<?xml version="1.0" encoding="UTF-8"?>
<svg id="Calque_1" data-name="Calque 1" xmlns="http://www.w3.org/2000/svg" viewBox="0 0 366.11 313.81">
  <defs>
    <style>
      .cls-1 {
        fill: #00a1d3;
      }
    </style>
  </defs>
  <path class="cls-1" d="M163.88,273.71l-26.15-26.15H26.15V50.56l147.32,94.58,147.75-94.58v108.09l26.15-26.15V26.15c0-6.97-2.62-13.08-7.85-18.31C334.3,2.62,328.2,0,321.22,0H26.15C19.18,0,13.08,2.62,7.85,7.85,2.62,13.08,0,19.18,0,26.15v221.41c0,6.97,2.62,13.08,7.85,18.31,5.23,5.23,11.33,7.85,18.31,7.85h137.73ZM319.04,26.15l-145.57,92.84L27.89,26.15h291.15Z"/>
  <polygon class="cls-1" points="241.03 276.33 189.59 224.9 170.85 243.64 241.03 313.81 366.11 188.72 347.37 169.98 241.03 276.33"/>
</svg>