<?xml version="1.0" encoding="UTF-8"?>
<svg id="Calque_1" data-name="Calque 1" xmlns="http://www.w3.org/2000/svg" viewBox="0 0 313.81 313.81">
  <defs>
    <style>
      .cls-1 {
        fill: #00a1d3;
      }
    </style>
  </defs>
  <path class="cls-1" d="M188.78,176.11c10.61,0,19.2-8.6,19.2-19.2s-8.6-19.2-19.2-19.2-19.2,8.6-19.2,19.2,8.6,19.2,19.2,19.2Z"/>
  <path class="cls-1" d="M26.15,313.81h261.51c7.19,0,13.35-2.56,18.47-7.68,5.12-5.12,7.68-11.28,7.68-18.47V26.15c0-7.19-2.56-13.35-7.68-18.47C301.01,2.56,294.85,0,287.66,0H26.15C18.96,0,12.8,2.56,7.68,7.68,2.56,12.8,0,18.96,0,26.15v261.51c0,7.19,2.56,13.35,7.68,18.47,5.12,5.12,11.28,7.68,18.47,7.68ZM287.66,287.66H85.87V26.15h201.79v261.51ZM26.15,26.15h44.45v261.51H26.15V26.15Z"/>
  <path class="cls-1" d="M188.78,219.4c34.46,0,62.49-28.03,62.49-62.49s-28.03-62.49-62.49-62.49-62.48,28.03-62.48,62.49,28.03,62.49,62.48,62.49ZM188.78,109.69c26.03,0,47.21,21.18,47.21,47.21s-21.18,47.21-47.21,47.21-47.21-21.18-47.21-47.21,21.18-47.21,47.21-47.21Z"/>
</svg>