<?xml version="1.0" encoding="UTF-8"?>
<svg id="Calque_1" data-name="Calque 1" xmlns="http://www.w3.org/2000/svg" viewBox="0 0 367.48 264.51">
  <defs>
    <style>
      .cls-1 {
        fill: #00a1d3;
      }
    </style>
  </defs>
  <path class="cls-1" d="M183.74,183.74c-10.72,0-20.99,2.11-30.81,6.32s-18.44,10.02-25.84,17.42l56.65,57.04,56.65-57.04c-7.4-7.4-16.01-13.21-25.84-17.42s-20.1-6.32-30.81-6.32Z"/>
  <path class="cls-1" d="M302.79,145.46c-16.08-16.08-34.26-29.03-54.55-38.85-20.29-9.82-41.79-14.74-64.5-14.74s-44.21,4.91-64.5,14.74c-20.29,9.82-38.47,22.78-54.55,38.85l24.12,24.12c13.01-13.01,27.56-23.48,43.64-31.39,16.08-7.91,33.17-11.87,51.29-11.87s35.22,3.96,51.29,11.87,30.62,18.37,43.64,31.39l24.12-24.12Z"/>
  <path class="cls-1" d="M183.74,0C148.78,0,115.54,7.21,84.02,21.63S24.5,55.76,0,80.77l24.12,24.12c21.95-20.93,46.51-37.9,73.69-50.91,27.18-13.01,55.82-19.52,85.94-19.52s58.76,6.51,85.94,19.52c27.18,13.01,51.74,29.99,73.69,50.91l24.12-24.12c-24.5-25.01-52.51-44.72-84.02-59.14S218.7,0,183.74,0Z"/>
</svg>